<svg xmlns="http://www.w3.org/2000/svg" viewBox="0 0 720 220" role="img" aria-label="The Chicken Farm logo">
  <defs>
    <linearGradient id="gold" x1="0" y1="0" x2="1" y2="1">
      <stop offset="0%" stop-color="#f4dd9a"/>
      <stop offset="35%" stop-color="#d6ac4a"/>
      <stop offset="100%" stop-color="#9b6a1f"/>
    </linearGradient>
    <linearGradient id="bg" x1="0" y1="0" x2="1" y2="1">
      <stop offset="0%" stop-color="#090909"/>
      <stop offset="100%" stop-color="#16120d"/>
    </linearGradient>
  </defs>
  <rect width="720" height="220" rx="36" fill="none"/>
  <g transform="translate(28 22)">
    <circle cx="88" cy="88" r="78" fill="url(#bg)" stroke="url(#gold)" stroke-width="6"/>
    <circle cx="88" cy="88" r="58" fill="none" stroke="#c89b3c" stroke-opacity="0.25" stroke-width="1.5"/>
    <path d="M63 92c0-20 13-36 31-40 15-3 31 2 41 13l9-7 9 10-7 7c3 5 5 11 5 17 0 24-18 43-41 43H93c-17 0-30-13-30-30z" fill="#111" stroke="url(#gold)" stroke-width="3.5"/>
    <path d="M127 61l12-14 8 10-9 12z" fill="#d6ac4a"/>
    <path d="M137 46l11-8 5 11-12 8z" fill="#c89b3c"/>
    <circle cx="108" cy="81" r="4" fill="#f6efe4"/>
    <path d="M74 108c13 5 33 7 51 0" fill="none" stroke="#f6efe4" stroke-opacity="0.85" stroke-width="3" stroke-linecap="round"/>
    <path d="M80 132c14 10 34 14 52 10" fill="none" stroke="url(#gold)" stroke-width="5" stroke-linecap="round"/>
    <path d="M59 116l-15 14 18 5z" fill="#8b1e1e" opacity="0.85"/>
  </g>
  <g transform="translate(220 46)">
    <text x="0" y="60" fill="#f6efe4" font-family="Arial Black, Arial, sans-serif" font-size="62" letter-spacing="6">THE CHICKEN</text>
    <text x="0" y="116" fill="url(#gold)" font-family="Arial Black, Arial, sans-serif" font-size="82" letter-spacing="8">FARM</text>
    <rect x="2" y="136" width="424" height="2" fill="#c89b3c" opacity="0.45"/>
    <text x="2" y="168" fill="#b8b1a7" font-family="Arial, sans-serif" font-size="18" letter-spacing="4">FIRE COOKING · PREMIUM CHICKEN · FRANCHISE READY</text>
  </g>
</svg>
